<svg width="64" height="64" viewBox="0 0 64 64" fill="none" xmlns="http://www.w3.org/2000/svg">
<path d="M20 11.5C20 10.1193 18.8807 9 17.5 9C16.1193 9 15 10.1193 15 11.5V16C15 22.0751 19.9249 27 26 27C26 25.3431 24.6569 24 23 24C21.3431 24 20 22.6569 20 21V11.5Z" fill="#E6E6E6"/>
<path d="M24 10C24 6.68629 26.6863 4 30 4H34C37.3137 4 40 6.68629 40 10V36H24V10Z" fill="#E6E6E6"/>
<path d="M44 16C44 13.7909 45.7909 12 48 12C50.2091 12 52 13.7909 52 16V18C52 25.732 45.732 32 38 32V29C38 27.3431 39.3431 26 41 26C42.6569 26 44 24.6569 44 23V16Z" fill="#E6E6E6"/>
<path d="M48.8779 44H15.1221L17.5037 56.7353C17.8577 58.6281 19.51 60 21.4356 60H42.5644C44.49 60 46.1423 58.6281 46.4962 56.7353L48.8779 44Z" fill="#C4C4C4"/>
<path d="M14.8164 42H49.184C49.1886 39.8394 47.4346 38 45.1828 38H18.8176C16.5658 38 14.8119 39.8394 14.8164 42Z" fill="#999999"/>
</svg>
