<svg width="115" height="127" viewBox="0 0 115 127" fill="none" xmlns="http://www.w3.org/2000/svg">
<path fill-rule="evenodd" clip-rule="evenodd" d="M114.14 13.55L106.61 46.06L56.61 34.17L62.61 0.350006L85.61 6.25001L86.86 0.710005L93.56 2.85001L92.26 7.95001L114.14 13.55ZM101.22 21.22L102.32 21.16L102.46 19.7L103.08 19.57C103.08 19.57 103.37 17.22 101.27 16.75C100.663 16.6126 100.032 16.615 99.4256 16.7571C98.8193 16.8991 98.2532 17.1771 97.77 17.57L94.83 13.24L92.83 15.44L96.09 19.38C93.9 22.58 93.15 27.64 94.4 29.12L89.2 36.78L92.54 37.61L96.66 31.61L95.66 38.45L98.51 39.16L100 27L101.84 26.35L102.92 27.66L103.98 26.66L100.98 22.22L101.22 21.22ZM73.32 19.48C69.85 19.02 65.06 22.48 66.61 26.71L62.8 30.17L65.8 30.93L68.52 28.27L68.01 31.48L71.62 32.38L72.94 23.38C73.7134 23.4365 74.4819 23.5468 75.24 23.71C75.65 22.12 76.32 19.89 73.32 19.48ZM89.25 18.48C84.9 14.23 76.34 24.81 79.06 27.87L74.51 33.13L77.66 33.92L82 29.74L81.78 34.93L85.06 35.75V31.33L86.81 31.27L87.72 22.83L89.96 23.15C89.96 23.15 90.72 19.89 89.25 18.45V18.48ZM62.9 51.89H52.74C53.89 54.47 55.13 57.55 56.26 60.96C60.2571 61.1899 64.2054 61.9533 68 63.23L64.84 79.31L59.84 80.19C60 86.86 58.84 93.58 55.29 99.52C52.809 103.645 49.2701 107.032 45.04 109.33L46.04 118.33L55.8 118L57.12 125H20.21L21.21 119.29L26.54 119.09L26.45 114.59C24.33 114.78 22.11 114.89 19.79 114.9C15.79 121.35 9.60001 126.7 0.200012 126.7C10.52 107.36 10.05 95.49 10.05 72.6C10.05 49.41 21.55 29.7 39.65 29.7C42.18 29.7 50.44 30.02 50.44 30.02L54.15 41.02C54.15 41.02 62.9 42.5 62.9 51.89ZM38.9 118.64L38.16 112.33C36.81 112.76 35.41 113.15 33.94 113.47L33.85 118.83L38.9 118.64ZM37.9 34.64C32.9 34.64 32.76 42.43 37.55 42.43C43.24 42.39 42.82 34.6 37.89 34.6L37.9 34.64ZM47.15 36C46.8037 35.9827 46.4575 36.0366 46.1328 36.1582C45.8081 36.2798 45.5117 36.4666 45.2619 36.707C45.0122 36.9475 44.8142 37.2366 44.6804 37.5565C44.5466 37.8763 44.4797 38.2202 44.4838 38.5669C44.4879 38.9136 44.5629 39.2558 44.7043 39.5724C44.8456 39.889 45.0503 40.1734 45.3057 40.4079C45.5611 40.6424 45.8619 40.8221 46.1894 40.936C46.5169 41.0498 46.8642 41.0955 47.21 41.07C50.48 41.08 50.5 36 47.15 36ZM46.09 51.47L37.78 50.82L34.69 56.13C40.99 69.13 44.33 85.01 35.62 100.9L27.1 92.64C26.4329 98.261 25.0031 103.765 22.85 109C36.52 108.39 45.76 104.21 50.31 96.55C58.17 83.31 53.37 65.77 46.09 51.47ZM69.27 78.53V78.47L77.18 43.52L82.86 44.82L77.1 67.47C81.03 69.92 83.98 72.8 85.1 75.73L74.52 77.6L72.1 87.1L67.63 85.8L69.27 78.53Z" fill="#1A202C"/>
</svg>
